<svg xmlns="http://www.w3.org/2000/svg" viewBox="0 0 1100 780" width="1100" height="780" font-family="'Segoe UI', Arial, sans-serif">
  <defs>
    <marker id="arr" markerWidth="10" markerHeight="7" refX="10" refY="3.5" orient="auto">
      <polygon points="0 0, 10 3.5, 0 7" fill="#64748B"/>
    </marker>
    <filter id="shadow" x="-5%" y="-5%" width="110%" height="110%">
      <feDropShadow dx="0" dy="2" stdDeviation="4" flood-color="#0F1A2E" flood-opacity="0.10"/>
    </filter>
  </defs>

  <!-- Background -->
  <rect width="1100" height="780" fill="#F7F9FC" rx="0"/>

  <!-- Title -->
  <rect x="0" y="0" width="1100" height="56" fill="#1A4A8F"/>
  <text x="550" y="34" text-anchor="middle" font-size="20" font-weight="bold" fill="white">مخطط قاعدة بيانات منصة مساري</text>
  <text x="550" y="50" text-anchor="middle" font-size="11" fill="#BFDBFE">Masari Platform — Entity Relationship Diagram</text>

  <!-- ═══════════════════════════════════════ -->
  <!-- TABLE: users (center-top) -->
  <!-- ═══════════════════════════════════════ -->
  <g filter="url(#shadow)">
    <!-- Header -->
    <rect x="390" y="90" width="220" height="36" rx="10" ry="0" fill="#1A4A8F"/>
    <rect x="390" y="110" width="220" height="16" fill="#1A4A8F"/>
    <text x="500" y="113" text-anchor="middle" font-size="13" font-weight="bold" fill="white">👤  users</text>
    <!-- Body -->
    <rect x="390" y="126" width="220" height="246" rx="0" ry="10" fill="white" stroke="#E2E8F0" stroke-width="1.5"/>
    <rect x="390" y="126" width="220" height="246" fill="white" stroke="#E2E8F0" stroke-width="1.5"/>
  </g>

  <!-- users rows -->
  <rect x="390" y="126" width="220" height="24" fill="#EEF4FF"/>
  <text x="402" y="142" font-size="11" fill="#1E40AF" font-weight="bold">🔑 id</text>
  <text x="606" y="142" text-anchor="end" font-size="10" fill="#64748B">INTEGER PK</text>

  <line x1="390" y1="150" x2="610" y2="150" stroke="#F1F5F9" stroke-width="1"/>
  <text x="402" y="165" font-size="11" fill="#334155">username</text>
  <text x="606" y="165" text-anchor="end" font-size="10" fill="#94A3B8">VARCHAR(20)</text>

  <line x1="390" y1="172" x2="610" y2="172" stroke="#F1F5F9" stroke-width="1"/>
  <text x="402" y="187" font-size="11" fill="#334155">email</text>
  <text x="606" y="187" text-anchor="end" font-size="10" fill="#94A3B8">VARCHAR(120)</text>

  <line x1="390" y1="194" x2="610" y2="194" stroke="#F1F5F9" stroke-width="1"/>
  <text x="402" y="209" font-size="11" fill="#334155">phone</text>
  <text x="606" y="209" text-anchor="end" font-size="10" fill="#94A3B8">VARCHAR(20)</text>

  <line x1="390" y1="216" x2="610" y2="216" stroke="#F1F5F9" stroke-width="1"/>
  <text x="402" y="231" font-size="11" fill="#334155">password</text>
  <text x="606" y="231" text-anchor="end" font-size="10" fill="#94A3B8">VARCHAR(256)</text>

  <line x1="390" y1="238" x2="610" y2="238" stroke="#F1F5F9" stroke-width="1"/>
  <text x="402" y="253" font-size="11" fill="#334155">role</text>
  <text x="606" y="253" text-anchor="end" font-size="10" fill="#94A3B8">VARCHAR(20)</text>

  <line x1="390" y1="260" x2="610" y2="260" stroke="#F1F5F9" stroke-width="1"/>
  <text x="402" y="275" font-size="11" fill="#334155">education_level</text>
  <text x="606" y="275" text-anchor="end" font-size="10" fill="#94A3B8">VARCHAR(50)</text>

  <line x1="390" y1="282" x2="610" y2="282" stroke="#F1F5F9" stroke-width="1"/>
  <text x="402" y="297" font-size="11" fill="#334155">date_joined</text>
  <text x="606" y="297" text-anchor="end" font-size="10" fill="#94A3B8">DATETIME</text>

  <!-- Relationships labels on users -->
  <rect x="390" y="314" width="220" height="20" fill="#F8FAFC"/>
  <text x="500" y="327" text-anchor="middle" font-size="10" fill="#94A3B8">1:1 → profiles  |  1:N → opportunities  |  1:N → applications</text>

  <!-- Border bottom radius fix -->
  <rect x="390" y="348" width="220" height="24" rx="0" ry="10" fill="white" stroke="#E2E8F0" stroke-width="1.5"/>
  <rect x="390" y="340" width="220" height="16" fill="white" stroke="none"/>


  <!-- ═══════════════════════════════════════ -->
  <!-- TABLE: profiles (left) -->
  <!-- ═══════════════════════════════════════ -->
  <g filter="url(#shadow)">
    <rect x="60" y="90" width="220" height="36" rx="10" ry="0" fill="#D4831A"/>
    <rect x="60" y="110" width="220" height="16" fill="#D4831A"/>
    <text x="170" y="113" text-anchor="middle" font-size="13" font-weight="bold" fill="white">📋  profiles</text>
    <rect x="60" y="126" width="220" height="196" rx="0" ry="10" fill="white" stroke="#E2E8F0" stroke-width="1.5"/>
    <rect x="60" y="126" width="220" height="196" fill="white" stroke="#E2E8F0" stroke-width="1.5"/>
  </g>

  <rect x="60" y="126" width="220" height="24" fill="#FEF3C7"/>
  <text x="72" y="142" font-size="11" fill="#92400E" font-weight="bold">🔑 id</text>
  <text x="276" y="142" text-anchor="end" font-size="10" fill="#64748B">INTEGER PK</text>

  <line x1="60" y1="150" x2="280" y2="150" stroke="#F1F5F9" stroke-width="1"/>
  <rect x="60" y="150" width="220" height="24" fill="#FFFBEB"/>
  <text x="72" y="166" font-size="11" fill="#D97706" font-weight="bold">🔗 user_id</text>
  <text x="276" y="166" text-anchor="end" font-size="10" fill="#64748B">FK → users.id</text>

  <line x1="60" y1="174" x2="280" y2="174" stroke="#F1F5F9" stroke-width="1"/>
  <text x="72" y="189" font-size="11" fill="#334155">skills</text>
  <text x="276" y="189" text-anchor="end" font-size="10" fill="#94A3B8">TEXT</text>

  <line x1="60" y1="196" x2="280" y2="196" stroke="#F1F5F9" stroke-width="1"/>
  <text x="72" y="211" font-size="11" fill="#334155">experience_years</text>
  <text x="276" y="211" text-anchor="end" font-size="10" fill="#94A3B8">INTEGER</text>

  <line x1="60" y1="218" x2="280" y2="218" stroke="#F1F5F9" stroke-width="1"/>
  <text x="72" y="233" font-size="11" fill="#334155">experience_desc</text>
  <text x="276" y="233" text-anchor="end" font-size="10" fill="#94A3B8">TEXT</text>

  <line x1="60" y1="240" x2="280" y2="240" stroke="#F1F5F9" stroke-width="1"/>
  <text x="72" y="255" font-size="11" fill="#334155">cv_link</text>
  <text x="276" y="255" text-anchor="end" font-size="10" fill="#94A3B8">VARCHAR(300)</text>

  <rect x="60" y="290" width="220" height="32" rx="0" ry="10" fill="white" stroke="#E2E8F0" stroke-width="1.5"/>
  <rect x="60" y="276" width="220" height="14" fill="white" stroke="none"/>


  <!-- ═══════════════════════════════════════ -->
  <!-- TABLE: opportunities (right) -->
  <!-- ═══════════════════════════════════════ -->
  <g filter="url(#shadow)">
    <rect x="720" y="90" width="340" height="36" rx="10" ry="0" fill="#15803D"/>
    <rect x="720" y="110" width="340" height="16" fill="#15803D"/>
    <text x="890" y="113" text-anchor="middle" font-size="13" font-weight="bold" fill="white">💼  opportunities</text>
    <rect x="720" y="126" width="340" height="444" rx="0" ry="10" fill="white" stroke="#E2E8F0" stroke-width="1.5"/>
    <rect x="720" y="126" width="340" height="444" fill="white" stroke="#E2E8F0" stroke-width="1.5"/>
  </g>

  <rect x="720" y="126" width="340" height="24" fill="#F0FDF4"/>
  <text x="732" y="142" font-size="11" fill="#15803D" font-weight="bold">🔑 id</text>
  <text x="1056" y="142" text-anchor="end" font-size="10" fill="#64748B">INTEGER PK</text>

  <line x1="720" y1="150" x2="1060" y2="150" stroke="#F1F5F9" stroke-width="1"/>
  <rect x="720" y="150" width="340" height="24" fill="#F0FDF4"/>
  <text x="732" y="166" font-size="11" fill="#16A34A" font-weight="bold">🔗 user_id</text>
  <text x="1056" y="166" text-anchor="end" font-size="10" fill="#64748B">FK → users.id</text>

  <line x1="720" y1="174" x2="1060" y2="174" stroke="#F1F5F9" stroke-width="1"/>
  <text x="732" y="189" font-size="11" fill="#334155">title</text>
  <text x="1056" y="189" text-anchor="end" font-size="10" fill="#94A3B8">VARCHAR(150)</text>

  <line x1="720" y1="196" x2="1060" y2="196" stroke="#F1F5F9" stroke-width="1"/>
  <text x="732" y="211" font-size="11" fill="#334155">company</text>
  <text x="1056" y="211" text-anchor="end" font-size="10" fill="#94A3B8">VARCHAR(100)</text>

  <line x1="720" y1="218" x2="1060" y2="218" stroke="#F1F5F9" stroke-width="1"/>
  <text x="732" y="233" font-size="11" fill="#334155">type</text>
  <text x="1056" y="233" text-anchor="end" font-size="10" fill="#94A3B8">VARCHAR(50)</text>

  <line x1="720" y1="240" x2="1060" y2="240" stroke="#F1F5F9" stroke-width="1"/>
  <text x="732" y="255" font-size="11" fill="#334155">description</text>
  <text x="1056" y="255" text-anchor="end" font-size="10" fill="#94A3B8">TEXT</text>

  <line x1="720" y1="262" x2="1060" y2="262" stroke="#F1F5F9" stroke-width="1"/>
  <text x="732" y="277" font-size="11" fill="#334155">responsibilities</text>
  <text x="1056" y="277" text-anchor="end" font-size="10" fill="#94A3B8">TEXT</text>

  <line x1="720" y1="284" x2="1060" y2="284" stroke="#F1F5F9" stroke-width="1"/>
  <text x="732" y="299" font-size="11" fill="#334155">benefits</text>
  <text x="1056" y="299" text-anchor="end" font-size="10" fill="#94A3B8">TEXT</text>

  <line x1="720" y1="306" x2="1060" y2="306" stroke="#F1F5F9" stroke-width="1"/>
  <text x="732" y="321" font-size="11" fill="#334155">min_education</text>
  <text x="1056" y="321" text-anchor="end" font-size="10" fill="#94A3B8">VARCHAR(50)</text>

  <line x1="720" y1="328" x2="1060" y2="328" stroke="#F1F5F9" stroke-width="1"/>
  <text x="732" y="343" font-size="11" fill="#334155">min_experience</text>
  <text x="1056" y="343" text-anchor="end" font-size="10" fill="#94A3B8">VARCHAR(50)</text>

  <line x1="720" y1="350" x2="1060" y2="350" stroke="#F1F5F9" stroke-width="1"/>
  <text x="732" y="365" font-size="11" fill="#334155">required_skills</text>
  <text x="1056" y="365" text-anchor="end" font-size="10" fill="#94A3B8">TEXT</text>

  <line x1="720" y1="372" x2="1060" y2="372" stroke="#F1F5F9" stroke-width="1"/>
  <text x="732" y="387" font-size="11" fill="#334155">required_certifications</text>
  <text x="1056" y="387" text-anchor="end" font-size="10" fill="#94A3B8">TEXT</text>

  <line x1="720" y1="394" x2="1060" y2="394" stroke="#F1F5F9" stroke-width="1"/>
  <text x="732" y="409" font-size="11" fill="#334155">work_type</text>
  <text x="1056" y="409" text-anchor="end" font-size="10" fill="#94A3B8">VARCHAR(30)</text>

  <line x1="720" y1="416" x2="1060" y2="416" stroke="#F1F5F9" stroke-width="1"/>
  <text x="732" y="431" font-size="11" fill="#334155">location</text>
  <text x="1056" y="431" text-anchor="end" font-size="10" fill="#94A3B8">VARCHAR(100)</text>

  <line x1="720" y1="438" x2="1060" y2="438" stroke="#F1F5F9" stroke-width="1"/>
  <text x="732" y="453" font-size="11" fill="#334155">salary_range</text>
  <text x="1056" y="453" text-anchor="end" font-size="10" fill="#94A3B8">VARCHAR(100)</text>

  <line x1="720" y1="460" x2="1060" y2="460" stroke="#F1F5F9" stroke-width="1"/>
  <text x="732" y="475" font-size="11" fill="#334155">gender_preference</text>
  <text x="1056" y="475" text-anchor="end" font-size="10" fill="#94A3B8">VARCHAR(20)</text>

  <line x1="720" y1="482" x2="1060" y2="482" stroke="#F1F5F9" stroke-width="1"/>
  <text x="732" y="497" font-size="11" fill="#334155">deadline</text>
  <text x="1056" y="497" text-anchor="end" font-size="10" fill="#94A3B8">DATETIME</text>

  <line x1="720" y1="504" x2="1060" y2="504" stroke="#F1F5F9" stroke-width="1"/>
  <text x="732" y="519" font-size="11" fill="#334155">date_posted</text>
  <text x="1056" y="519" text-anchor="end" font-size="10" fill="#94A3B8">DATETIME</text>

  <rect x="720" y="548" width="340" height="22" rx="0" ry="10" fill="white" stroke="#E2E8F0" stroke-width="1.5"/>
  <rect x="720" y="536" width="340" height="12" fill="white" stroke="none"/>


  <!-- ═══════════════════════════════════════ -->
  <!-- TABLE: applications (bottom-center) -->
  <!-- ═══════════════════════════════════════ -->
  <g filter="url(#shadow)">
    <rect x="280" y="450" width="380" height="36" rx="10" ry="0" fill="#7C3AED"/>
    <rect x="280" y="470" width="380" height="16" fill="#7C3AED"/>
    <text x="470" y="473" text-anchor="middle" font-size="13" font-weight="bold" fill="white">📨  applications</text>
    <rect x="280" y="486" width="380" height="264" rx="0" ry="10" fill="white" stroke="#E2E8F0" stroke-width="1.5"/>
    <rect x="280" y="486" width="380" height="264" fill="white" stroke="#E2E8F0" stroke-width="1.5"/>
  </g>

  <rect x="280" y="486" width="380" height="24" fill="#F5F3FF"/>
  <text x="292" y="502" font-size="11" fill="#5B21B6" font-weight="bold">🔑 id</text>
  <text x="656" y="502" text-anchor="end" font-size="10" fill="#64748B">INTEGER PK</text>

  <line x1="280" y1="510" x2="660" y2="510" stroke="#F1F5F9" stroke-width="1"/>
  <rect x="280" y="510" width="380" height="24" fill="#F5F3FF"/>
  <text x="292" y="526" font-size="11" fill="#7C3AED" font-weight="bold">🔗 user_id</text>
  <text x="656" y="526" text-anchor="end" font-size="10" fill="#64748B">FK → users.id</text>

  <line x1="280" y1="534" x2="660" y2="534" stroke="#F1F5F9" stroke-width="1"/>
  <rect x="280" y="534" width="380" height="24" fill="#F5F3FF"/>
  <text x="292" y="550" font-size="11" fill="#7C3AED" font-weight="bold">🔗 opportunity_id</text>
  <text x="656" y="550" text-anchor="end" font-size="10" fill="#64748B">FK → opportunities.id</text>

  <!-- Split into 2 columns for applications fields -->
  <line x1="280" y1="558" x2="660" y2="558" stroke="#F1F5F9" stroke-width="1"/>
  <text x="292" y="573" font-size="11" fill="#334155">contact_email</text>
  <text x="466" y="573" text-anchor="end" font-size="10" fill="#94A3B8">VARCHAR(120)</text>
  <text x="474" y="573" font-size="11" fill="#334155">contact_phone</text>
  <text x="656" y="573" text-anchor="end" font-size="10" fill="#94A3B8">VARCHAR(20)</text>

  <line x1="280" y1="580" x2="660" y2="580" stroke="#F1F5F9" stroke-width="1"/>
  <text x="292" y="595" font-size="11" fill="#334155">applicant_education</text>
  <text x="466" y="595" text-anchor="end" font-size="10" fill="#94A3B8">VARCHAR(50)</text>
  <text x="474" y="595" font-size="11" fill="#334155">applicant_experience</text>
  <text x="656" y="595" text-anchor="end" font-size="10" fill="#94A3B8">VARCHAR(50)</text>

  <line x1="280" y1="602" x2="660" y2="602" stroke="#F1F5F9" stroke-width="1"/>
  <text x="292" y="617" font-size="11" fill="#334155">applicant_skills</text>
  <text x="466" y="617" text-anchor="end" font-size="10" fill="#94A3B8">TEXT</text>
  <text x="474" y="617" font-size="11" fill="#334155">current_position</text>
  <text x="656" y="617" text-anchor="end" font-size="10" fill="#94A3B8">VARCHAR(100)</text>

  <line x1="280" y1="624" x2="660" y2="624" stroke="#F1F5F9" stroke-width="1"/>
  <text x="292" y="639" font-size="11" fill="#334155">motivation</text>
  <text x="466" y="639" text-anchor="end" font-size="10" fill="#94A3B8">TEXT</text>
  <text x="474" y="639" font-size="11" fill="#334155">relevant_experience</text>
  <text x="656" y="639" text-anchor="end" font-size="10" fill="#94A3B8">TEXT</text>

  <line x1="280" y1="646" x2="660" y2="646" stroke="#F1F5F9" stroke-width="1"/>
  <text x="292" y="661" font-size="11" fill="#334155">availability</text>
  <text x="466" y="661" text-anchor="end" font-size="10" fill="#94A3B8">VARCHAR(50)</text>
  <text x="474" y="661" font-size="11" fill="#334155">status</text>
  <text x="656" y="661" text-anchor="end" font-size="10" fill="#94A3B8">VARCHAR(20)</text>

  <line x1="280" y1="668" x2="660" y2="668" stroke="#F1F5F9" stroke-width="1"/>
  <text x="292" y="683" font-size="11" fill="#334155">compatibility_score</text>
  <text x="466" y="683" text-anchor="end" font-size="10" fill="#94A3B8">INTEGER</text>
  <text x="474" y="683" font-size="11" fill="#334155">date_applied</text>
  <text x="656" y="683" text-anchor="end" font-size="10" fill="#94A3B8">DATETIME</text>

  <rect x="280" y="728" width="380" height="22" rx="0" ry="10" fill="white" stroke="#E2E8F0" stroke-width="1.5"/>
  <rect x="280" y="716" width="380" height="12" fill="white" stroke="none"/>

  <!-- vertical separator in applications table -->
  <line x1="470" y1="558" x2="470" y2="716" stroke="#F1F5F9" stroke-width="1" stroke-dasharray="3,2"/>


  <!-- ═══════════════════════════════════════ -->
  <!-- RELATIONSHIP LINES -->
  <!-- ═══════════════════════════════════════ -->

  <!-- users → profiles (1:1) -->
  <line x1="390" y1="162" x2="280" y2="162" stroke="#D4831A" stroke-width="2" stroke-dasharray="6,3" marker-end="url(#arr)"/>
  <rect x="290" y="148" width="84" height="18" rx="4" fill="#FEF3C7"/>
  <text x="332" y="160" text-anchor="middle" font-size="10" font-weight="bold" fill="#92400E">1 : 1</text>

  <!-- users → opportunities (1:N) -->
  <line x1="610" y1="162" x2="720" y2="162" stroke="#15803D" stroke-width="2" stroke-dasharray="6,3" marker-end="url(#arr)"/>
  <rect x="626" y="148" width="84" height="18" rx="4" fill="#D1FAE5"/>
  <text x="668" y="160" text-anchor="middle" font-size="10" font-weight="bold" fill="#065F46">1 : N</text>

  <!-- users → applications (1:N) -->
  <line x1="500" y1="372" x2="500" y2="450" stroke="#7C3AED" stroke-width="2" stroke-dasharray="6,3" marker-end="url(#arr)"/>
  <rect x="458" y="400" width="84" height="18" rx="4" fill="#EDE9FE"/>
  <text x="500" y="412" text-anchor="middle" font-size="10" font-weight="bold" fill="#5B21B6">1 : N</text>

  <!-- opportunities → applications (1:N) -->
  <line x1="720" y1="560" x2="660" y2="560" stroke="#7C3AED" stroke-width="2" stroke-dasharray="6,3" marker-end="url(#arr)"/>
  <rect x="662" y="546" width="56" height="18" rx="4" fill="#EDE9FE"/>
  <text x="690" y="558" text-anchor="middle" font-size="10" font-weight="bold" fill="#5B21B6">1 : N</text>


  <!-- ═══════════════════════════════════════ -->
  <!-- LEGEND -->
  <!-- ═══════════════════════════════════════ -->
  <rect x="20" y="650" width="240" height="110" rx="10" fill="white" stroke="#E2E8F0" stroke-width="1.5" filter="url(#shadow)"/>
  <text x="140" y="670" text-anchor="middle" font-size="12" font-weight="bold" fill="#1A4A8F">المفتاح / Legend</text>
  <line x1="30" y1="676" x2="252" y2="676" stroke="#E2E8F0" stroke-width="1"/>

  <rect x="32" y="684" width="12" height="12" rx="3" fill="#EEF4FF" stroke="#BFDBFE" stroke-width="1"/>
  <text x="52" y="694" font-size="10" fill="#334155">🔑  Primary Key (PK)</text>

  <rect x="32" y="702" width="12" height="12" rx="3" fill="#FFFBEB" stroke="#FDE68A" stroke-width="1"/>
  <text x="52" y="712" font-size="10" fill="#334155">🔗  Foreign Key (FK)</text>

  <line x1="32" y1="728" x2="58" y2="728" stroke="#64748B" stroke-width="2" stroke-dasharray="5,2"/>
  <text x="68" y="732" font-size="10" fill="#334155">علاقة بين الجداول</text>

  <text x="32" y="750" font-size="10" fill="#334155">1:1  علاقة واحد لواحد</text>
  <text x="140" y="750" font-size="10" fill="#334155">1:N  واحد لمتعدد</text>

</svg>
